<?xml version="1.0" encoding="UTF-8" standalone="no"?>
<svg
   xmlns="http://www.w3.org/2000/svg"
   width="622.63104"
   height="363.93961"
   version="1.1"
   id="svg42">
  <metadata
     id="metadata48">
  </metadata>
  <defs
     id="defs46" />
  <g
     fill-rule="evenodd"
     id="g20"
     transform="translate(-344.68449,0.01681847)">
    <path
       d="m 389,363.4 c 17.7,-13.8 42,-22.8 48.6,-46 0.8,-2.8 0,-13 -2.6,-14.7 -2.6,-1.6 -15.6,2.2 -18.9,2.7 -8.1,1.4 -23.6,-4.8 -27.4,-12.3 a 130.4,130.4 0 0 1 -10.9,-33 c -2,-10 -8.9,-20.7 -13.2,-30 -5.9,-12.5 -9,-22.1 -10.2,-36 -1,-11.1 0,-22.6 -2.7,-33.6 -1.3,-5.4 -2.4,-10.6 -5.4,-15.4 -2.7,-4.4 -1.2,-11.8 -1.2,-17 0,-10.6 1.2,-21 3,-31.5 4,-24.2 7.7,-45.8 25.6,-63.6 8,-8 19,-12.5 29.1,-16.9 9.6,-4.2 20.6,-10.4 30.8,-12.2 24.9,-4.5 48,-5.5 72.9,-1 21.9,4 45.3,13.9 56.3,34.2 a 120.5,120.5 0 0 1 15,65.4 187.6,187.6 0 0 1 -16.6,67 c -4.8,10.6 -12.3,19.4 -16.7,30 a 61.5,61.5 0 0 0 -3,32.5 166,166 0 0 0 19.7,61 l 0.7,-0.7 c 10,15.7 26.2,26.7 42.8,35 19.2,9.6 34.5,22.6 51.3,36 H 389"
       fill="#131315"
       id="path2" />
    <path
       d="m 383.4,166.8 c 0.7,7.2 4.1,33.2 -2.8,37 -0.7,-11.9 2.1,-25.2 2.8,-37 m 236.4,196.6 c -11.9,-7.1 -24,-13.6 -36.9,-18.6 -6.8,-2.7 -13.5,-5.2 -20.3,-7.6 -4.2,-1.4 -18,-4 -20.3,-7.8 -16,-27.4 -18.4,-54.8 -20.1,-86 -3.8,0.5 -16.3,-0.2 -18.6,2.7 -4.5,5.6 -8.8,11.5 -13.9,16.6 a 238,238 0 0 1 -29.8,25.8 c -7.6,5.5 -8.6,5.2 -6.7,14.6 1.2,5.7 4.3,14.1 4,19 -0.8,14.1 -2.5,27.4 -5.4,41.3 h 168 M 377.8,84.5 c 2.5,-22.2 6.8,-45.9 26.4,-59.6 a 258.7,258.7 0 0 1 33,-19.2 54.8,54.8 0 0 1 31.3,-3.4 c -21,13.5 -32.5,28.8 -35.2,54.1 l -2.4,22.3 c -0.2,1.8 -13.3,2.4 -15,2.4 -12.7,0.7 -25.6,0.7 -38,3.4 m -16,2.8 c 2.4,-18.7 4.4,-42.1 20,-55.5 8,-6.8 16.3,-12.4 26,-16.7 4.7,-2 10,-3.4 15,-5 5.4,-1.8 8.7,-5.8 15,-5 -3.1,3 -9.5,3.9 -13.6,5.5 -4.9,2 -9.3,3.9 -13.8,6.7 a 76.1,76.1 0 0 0 -21.7,21 c -5.8,8.1 -8.6,17.9 -10.7,27.5 -1.3,5.7 -2.3,11 -2.3,16.8 0,4 -10.3,4 -14,4.7 m -9.7,5.6 c 1.8,-25.7 8.9,-45.1 27.2,-63.4 1.2,2.6 -5.9,11.6 -7.5,14.8 a 94,94 0 0 0 -6.5,15.5 138,138 0 0 0 -4.5,18 c -1.2,7.3 -0.7,12.8 -8.7,15.1 M 546.6,95 c -17,-1.4 -34.7,0 -51.5,-3.2 -4.4,-0.7 -8.5,-1.8 -12.8,-3 -1.4,-0.3 0.3,-9.2 0.6,-11.3 0.6,-5.3 3.5,-20 -2.6,-23 0.6,6.2 1,12.4 0.6,18.6 -0.3,3.7 -0.4,6.9 -1.6,10.4 -1.6,4.7 -1.6,3.7 -6.6,2.4 a 216.4,216.4 0 0 0 -39,-6.2 c 1.9,-19.6 1,-41.5 13.8,-57.7 6,-7.4 13.5,-12.2 21.8,-16.8 9,-5 21.3,-2.8 31.2,-1.2 A 49.5,49.5 0 0 1 541,37.4 c 3.3,8.4 5.1,18.4 6.4,27.3 0.6,3.9 6,31.7 -0.8,30.3 m 27.1,15.3 c -2.6,-5.5 -20.8,-12.2 -21,-15 -0.6,-10.8 -1,-21.7 -2.7,-32.4 a 119,119 0 0 0 -7.7,-28.2 c -3.4,-8 -11.5,-15.5 -13.9,-23.4 20.7,4.7 32.6,21.2 39.1,40.7 2.2,6.5 14,57.5 6.2,58.4 m -145,21.6 c 1.3,-5 7.2,-3.4 11.2,-3.4 -3,2.3 -7.6,2.6 -11.2,3.4 m -55.7,4.2 c -4,-4 -10.3,-2.5 -15.4,-2 -1.2,-15.1 -5.2,-46.2 16.8,-46.8 0.4,6.9 5.2,48 -1.4,48.8 m -24.4,1.4 c 0.6,-11 -2.4,-39.5 9.7,-45.3 -1.3,7.4 -3.4,14.8 -3.4,22.4 0,7.6 1,18.6 -6.3,23 m 62.7,1.3 c -3.2,-5 5.8,-5.8 9,-7 1.6,5.8 -5,5.9 -9,7 m -41.1,1.4 a 693,693 0 0 1 -14,-1.4 c 1.6,-2.8 7.5,-2.5 10.4,-2 1.2,0.2 7.2,0.4 7.8,1.3 1.6,2.6 -2.9,2.5 -4.2,2.1 m 69.7,11.2 c -4.3,-0.4 -11.8,0.5 -14,-4.2 5.6,0.5 10.2,1.3 15.4,3.5 l -1.4,0.7 m 99,0.7 c -2,-1.2 -3.8,-5.6 -5.8,-5.6 -3.3,0 -5.4,0.7 -7.8,3.1 -3.7,3.8 -8.6,-3.5 -2.4,-7 5.1,-3 12,-6.5 17.4,-1.7 3.4,3 6.1,13 -1.4,11.2 m 25.8,2 c -0.7,-3.6 -11.1,-2.2 -15,-3 -5.2,-1 -2.7,-9.7 -2.3,-14 a 196,196 0 0 1 3,-20.1 c 0.7,-3.3 0.6,-15.9 2.4,-17.2 4.3,-3.2 12.4,4.5 14.7,7 4.2,4.6 6,9 6.8,15.2 1.2,8 -4.9,25.6 -9.6,32.2 m -188.2,0 c -4.3,-1.9 -8,-3.3 -12.6,-4.2 -1.5,-0.3 -4.6,1 -5,-0.8 -0.8,-2.5 -1.5,-5 -2,-7.6 5.7,0 11.2,0 16.8,0.8 5,0.7 4.3,1.2 5.4,6 0.7,3 1.2,5.5 -2.6,5.8 m -22.3,0 c -3.4,-2.3 -3,-7.6 -3.5,-11.2 4.7,-0.5 9,11.4 3.5,11.2 m 108,0.7 c -7.2,-1.6 -13.6,-4 -20.6,-6.2 -6.4,-2 -17.7,-2.4 -17.7,-10.6 0,-10.3 35,-4.2 41.1,-4.2 -3.9,-5 -10.7,-6.2 -16.6,-7 -3.8,-0.6 -17,-0.3 -16.7,-4.3 0.4,-7.2 1,-14.5 1.3,-21.7 l 0.5,-13.8 c 0.2,-5.2 0.8,-4 6,-4 8.7,0 33,-0.2 38.7,8.3 2.6,4 2.3,16 3.5,21 1.8,7 4.2,13.9 6.3,20.8 0.8,-13.3 -5,-27.3 -7,-40.4 16.6,2 33.2,2.8 49.9,4.2 l 13.2,1 c 5.6,0.5 5.2,1.8 5.2,7.3 0,8.3 -0.5,17 -2.3,25 -0.7,3.4 -1.3,6.4 -3.4,9.2 -0.3,0.4 -9,-2.8 -11.3,-2.8 a 17,17 0 0 0 -10.1,3.7 c -2.7,2 -4.3,7.4 -7.8,7.6 -17.8,0.8 -34.8,3.2 -52.2,6.9 M 428,159 c 0,-6.6 -0.5,-6.2 6.2,-6.2 3.9,0 7.7,0.6 11.3,2 A 131,131 0 0 1 428,159 m -52.2,0 c -4.5,-2.7 -14.8,-0.9 -14.7,-6.2 6.7,-0.5 11,1.4 16,5.5 l -1.3,0.7 m 39,1.4 c 1,-5.4 6,-5.7 9,-2 a 30,30 0 0 1 -9,2 m -30,0 c -3.8,-21.1 -7.6,-42 -7.6,-63.6 0,-3.4 -2,-10 2,-10.5 l 21.1,-2.2 c 10.2,-1 20.4,-1.7 30.5,-2.4 l -0.5,25.5 c 0,5 1,14.4 -3,18.4 -5.1,5.1 -14.2,2.7 -18.8,7.6 -2.5,2.8 -3,6.6 2.1,8.4 2.2,0.8 8,-1.6 10.5,-2 2,8.2 -13.5,9.7 -10.5,16.6 3,-2.7 5.2,-7.3 9.8,-7.6 7.3,-0.6 -0.3,5.8 -3.5,7.6 -9.5,5.3 -21.8,2.4 -32,4.2 m -28.7,1.4 c -3.4,-6.6 8.8,-5 0,0 m 69,2.8 c -1.4,-0.4 -1.8,-1.5 -3.4,-1.4 2,-3.6 8.6,0.3 3.5,1.4 m 9.7,2.1 c -3.6,-1 -6.9,-0.8 -6.3,-5.6 7.2,-1.1 14,-2.3 21,-4.2 -2,5.2 -9.5,9.3 -14.7,9.8 m -73.2,0.7 c -4.8,-1.2 -3.8,-6.5 0.7,-7 0.3,2.5 2,7.7 -0.7,7 m 5.6,1.4 a 11.8,11.8 0 0 1 -1.7,-9 c 0.6,-2.7 7.2,0 9.5,1 1.5,0.6 3.9,1 4.2,2.6 0.8,4 -0.6,1.4 -1.9,4 -0.6,1.3 -8.3,1 -10.1,1.4 m 2,6.3 c -3.9,-4 3.6,-6.3 7,-6.3 a 14,14 0 0 1 -7,6.3 m 167.4,2 c 1.5,-6.7 4.4,-12.1 7.4,-18.3 3,-5.7 10.7,-7.5 17,-4.3 4.4,2.2 3.3,3.5 1,8 a 33.5,33.5 0 0 1 -6.6,9 c -5,5 -12.2,5 -18.8,5.7 M 447.6,201 434,199 c -1.1,-0.2 -0.8,-11 -0.9,-12.5 -0.1,-3.8 0,-7.5 0.2,-11.3 0.4,-7.8 0.4,-6 6.7,-9.5 7.4,-4.3 14,-8.7 21.8,-8.7 7.8,0 17.8,-3.7 25.8,-4.8 8.3,-1.1 16.7,-1.4 25,-1.4 2,0 9.6,2.2 9.5,3.5 -0.2,1.6 -2,13.2 0.8,13.9 1.4,0.4 1.6,-15.6 6.2,-16.7 10,-2.5 0.9,14.7 1.4,19.5 1.5,-3.2 3.1,-6.3 4.4,-9.6 2.4,-5.9 1.8,-6.4 8.2,-6.4 -0.6,2.7 -7.6,19.7 -9.7,19.4 -7.2,-1.2 -14.7,0.9 -21.7,4.3 v -1.4 c -21,12.4 -39.5,21.8 -64.1,23.7 m -60.7,2 c -4.4,-0.9 -1,-15.7 -0.8,-19.7 0.5,-6.8 0.1,-13.6 0.1,-20.4 0,-5.5 33.2,1.7 36.3,2.5 2,0.5 8.2,1.6 8.4,3.5 0.4,3.5 0.6,6.6 0.3,10.1 -0.2,2.4 -0.7,19.1 -1.5,19.3 -14.1,2.6 -28.5,3.4 -42.8,4.8 m -8.3,12.5 c 0.5,-3.1 0,-8.5 3.4,-9.8 -0.2,3.5 1.1,9.7 -3.4,9.8 m -20.3,-12.5 c -2.1,-12 -1.6,-24.2 -2,-36.3 1.4,1 8.5,3.6 9,4.9 1.5,3.8 -6.7,5 0,6.3 a 62.4,62.4 0 0 0 -2.8,26.4 c -1.3,-0.4 -3,-0.6 -4.2,-1.3 m 10.5,30.6 c -5,-9.1 -8.4,-18.3 -10.5,-28.6 6.5,0 5.1,7.1 6.4,12.4 1,3.6 5.5,13 4,16.2 M 525,238 524.5,213.6 c 0,-2 -0.9,-5.7 -0.1,-7.7 0.7,-2 4.6,-5 5.9,-7.6 1.3,-2.6 2.9,-17.7 5,-18.3 6.6,-1.8 14,-4.6 21.1,-4 -7.6,11.2 -14.2,20.3 -17,33.8 -1.2,6.1 -0.6,13 -1,19.3 -0.1,1.1 -12,7.8 -13.4,9 m -17.4,4.8 c 0.1,-3.6 2.4,-5.8 4.5,-8.5 1.6,-2.1 1,-6.8 1.1,-9.5 0.6,-6.5 0.7,-15.7 8.4,-17.6 v 24.2 c 0,1.6 1,9.1 -0.8,9.4 -4.4,1 -8.7,1.5 -13.2,2 m -53,28.6 c -2.5,-11.7 -4.9,-23.3 -7.9,-34.8 -3,-12 -7.5,-22.7 -11.6,-34.2 18.6,1 33.6,-2.2 51,-8.4 7.8,-2.8 15.2,-7.5 22.5,-11.3 8.7,-4.7 14.4,-4.6 24.1,-5.4 -1.4,9.3 -2.7,25.1 -14.3,26.8 -7,1 -7.4,23.8 -10.4,30.4 a 77.5,77.5 0 0 1 -9,15.4 c -3.6,4.7 -7.5,4 -12.3,6.1 -10.2,4.6 -20.7,14 -32,15.4 M 410,281.9 c -2.3,-2.3 -1.4,-6 -1.4,-9 0,-4.6 5.7,-4.3 9.7,-5.4 7,-2 11.7,-12 18,-15.7 9,-5.4 -12.3,-10.7 -15.1,-11 -9,-0.9 -14.6,-1 -22.3,2.8 -0.1,-3.8 0.2,-7.5 0.4,-11.2 0.3,-6 0.7,-5.8 5.8,-9 -3,-1 -6,1.6 -9.7,0.7 -3.9,-1 -7.4,-4 -10.1,-6.7 -3,-3 -1.4,-7.6 -1.1,-11.7 0,-1.2 11.2,-1.3 12.6,-1.4 L 411,203 c 0.3,0 3.8,10.5 3.7,11.8 -1,10 -18.2,-1.6 -18.1,6.3 5.8,0 15.2,5.3 18.8,0.7 3.8,-5 0.1,-14.4 -1.4,-19.5 a 93,93 0 0 1 16.1,-0.1 c 1.3,0.1 6.4,13.3 7.3,15 4.9,9 7.4,20.8 9.3,30.7 1.1,6.2 2.3,12.3 3.2,18.5 1.2,8.2 -0.2,8 -7.8,10.8 -10,3.7 -21.8,3.8 -32.3,4.5 m -44.6,-77.4 c 0,-7 -0.8,-14.9 1.4,-21.7 1.4,-4.2 9.9,-13.6 14.6,-13.1 -0.5,6.8 -1,13.6 -1.9,20.4 -0.3,2.4 0.1,10.6 -1.5,12.4 -2,2 -10.1,1.8 -12.6,2 m 32.8,77.4 c -3.8,-2.2 -11.5,-5.3 -13,-9.7 l -9.7,-26.3 a 218.1,218.1 0 0 1 -10,-40 c 3.7,0 9.7,1.1 12.5,-2 -0.4,2.8 -3.6,15.1 -1.4,16.4 4,2.3 9.9,6.1 14.6,6.6 2.8,0.3 5.5,-0.6 5.7,2.5 0.2,2.9 1.3,7.2 0.6,10 -2.1,8.3 -7.6,-0.5 -10.5,3.8 -1.6,2.4 -1.6,5.1 -2,7.9 -0.2,1.5 2.7,2 3,4.2 1,5.2 1.8,9.2 6.7,12 3.3,1.9 12.1,1 11.6,4.7 -1.2,7.8 0,10 -8.1,10 m 55.7,6.9 c 0,-4.2 0,-7.8 1,-11.9 1,-3.4 8.2,-5.8 11.2,-7.4 5.8,-3.3 14.5,-9 21.3,-8.6 -9.5,9.5 -20.4,23.4 -33.5,27.9 M 406.4,302 c -11,-5.4 -15.5,-10.3 -18.8,-22.3 6,0.5 10.8,5 17.2,5 1.4,0 3.1,14.6 3.7,17.3 h -2 m 7.6,0.7 c -3.2,-4.5 -5,-7 -5.6,-12.5 -0.7,-8.1 3.8,-5.7 10.5,-7 10.9,-2.1 20.9,-4.8 32,-5.6 0,4.3 -0.1,8.3 -0.6,12.6 -0.2,2.3 -6.9,4.9 -9,5.8 a 75,75 0 0 1 -27.3,6.7 m 212.6,60.7 c -11.6,-9.3 -23.2,-19.6 -36,-27.4 -6,-3.8 -12,-7.9 -18.2,-11.2 -6.7,-3.7 -15.9,-6 -20.5,-12.3 -8.7,-11.5 -12.8,-29 -17.7,-42.5 -2.7,-7.5 -5.2,-15 -7.5,-22.6 -1.9,-6 -2.2,-4.4 1.6,-8.1 3,-3 7,-4.9 10.5,-7 5.8,34.6 15.9,62.6 41.1,87.9 -0.4,-3.4 -2.7,-6 -4.9,-8.4 l 0.7,-0.7 a 323,323 0 0 0 39,24.4 c 13.7,7.4 25,18 37,27.9 h -25 m -234.3,0 c 8,-5 16.1,-10 23.3,-16.3 6.7,-5.9 14.3,-15.8 22,-20 -0.5,4.6 -4.1,18.9 0,22.3 6.4,-10 1.8,-32.3 1,-43.5 -0.2,-4.3 -0.8,-5.7 3.2,-7.7 4.3,-2.1 6.7,-1.7 8.4,2.4 2.8,7.1 4.1,14.1 4.1,21.7 0,6 -0.1,41 -7.3,41 h -54.7"
       fill="#c6946b"
       id="path4" />
    <path
       d="m 404.3,252.5 c -10.6,-5.6 0.6,-9.9 7.7,-10.4 5.2,-0.4 21,1.4 22.3,7 -10,1.8 -20,1.6 -30,3.4 m -6.9,1.5 a 20,20 0 0 1 -8.4,-2.5 c -1.4,-0.7 -1,-6 0.7,-6 4.4,0 6.3,0 8.4,4.3 1.1,2.3 3.4,4.2 -0.7,4.1"
       fill="#965938"
       id="path6" />
    <path
       d="m 407.8,266.5 c -8.7,-0.7 -4.8,-9.2 0.6,-11.6 5.8,-2.6 13.8,-2.2 20,-2.9 6,-0.6 0,6.7 -2.4,7.8 a 88,88 0 0 1 -18.2,6.7"
       fill="#e8c6b0"
       id="path8" />
    <path
       d="m 398,266.5 c -4,-2 -9.3,-6.2 -8.3,-11.2 1.3,0.4 10.7,1 11.2,1.4 1.1,1.2 -0.2,7.6 0.7,9.8 -1.1,0 -2.5,0.3 -3.5,0"
       fill="#c6946b"
       id="path10" />
    <path
       d="m 532.6,12 c 5.4,2.8 13.2,5.6 16.7,10.8 4.6,6.8 -1.4,8.8 -7,11.6 -1.8,-3.8 -3.4,-8.3 -5.9,-11.7 -2.5,-3.5 -6.8,-7.2 -8,-11.4 1.4,0.3 3,0.2 4.2,0.7 m 7.7,22.4 c -16.6,3 -36.4,1 -51.7,7.9 -17,7.6 -13.7,28 -16.6,43.6 -8.6,-1.8 -17,-3.9 -25.8,-4.8 -1.3,-0.2 -12.6,-1 -12.5,-1.8 l 1.4,-14 c 1,-17 3.2,-37.2 17.3,-49 4.6,-3.7 15.3,-13 21.4,-13.3 9.2,-0.5 17.8,-0.8 27,1 19.3,3.9 30.1,13.2 39.5,30.4 m -69,53.6 c -1.5,6.4 -2.7,13 -2,19.6 0.8,8.5 2.9,15.8 -0.5,24.1 -2.7,7 -12.3,6.5 -18.3,6.4 -8.2,-0.2 -18.7,1.4 -26.6,-1.3 10.8,-8.8 28.3,-2.8 41,-2.8 -5.4,-7.2 -17.5,-7.4 -25.7,-8.3 -5.3,-0.6 -7.8,1.1 -7.4,-4.5 l 1.1,-17.8 0.6,-16.2 c 0.2,-5.7 2.7,-4.4 8.2,-4 10.3,0.7 19.7,2 29.6,4.8 m -53,49.5 c -2.7,0.8 -7.7,3.1 -7.7,-1 0,-2.4 7.6,-3.8 9.8,-4.6 0.6,2.3 -0.2,4.4 -2.1,5.6 m -6.3,4.2 c -1.4,2.8 -6.5,11.7 -3.5,14.6 3,2.9 12.1,-6.3 15.4,-7 -7,12.7 -25.3,10.3 -37.7,11.2 0.9,-9.4 -4.6,-20.5 -6,-29.9 -1.5,-10 -3,-19.8 -3,-30 0,-2.2 -1.2,-13.8 0.9,-14 l 22.2,-2.4 c 10.2,-1 20.4,-1.7 30.5,-2.4 l -0.4,21.3 c 0,6 1.1,14.1 -1.7,19.8 -2.6,5.3 -7.9,6.9 -13.6,7.8 -6.7,1.2 -13.5,9.8 -3,11 m 14.6,6.3 c 4,-0.5 8.6,1 11.8,3.5 -3.5,-0.4 -10.3,0.4 -11.8,-3.5 m 16.7,5.6 c 0.7,0.8 1.3,1 1.4,2 l -5.6,-2.7 c 1.4,0.2 2.8,0.3 4.2,0.7 m -23,2 c -1.7,2.3 -2.5,5.2 -5.6,5 0.5,-2.9 2.9,-4.4 5.6,-5 m 16.7,4.2 c 1.4,3 -3.2,4.4 -6,5.3 -1.9,0.6 -3.5,-2.2 -2.4,-3.9 0.8,-1 7,-1.1 8.4,-1.4 m -9,7.7 c 5.3,1.5 3.2,10.4 2.8,14.8 -0.5,5.6 1.5,15.4 -4.3,16.5 -6.4,1.2 -12.6,1.6 -19.1,2.3 -3.8,0.3 -19.9,4.5 -22.7,1.3 -1.7,-2 2.8,-40 2.5,-40 a 71,71 0 0 1 40.7,5.1 m 5.6,0.7 c 12.2,-3 23.6,-13.3 37,-10.5 a 20,20 0 0 1 14,12.6 c 1.3,3.8 4.3,17.2 2,20.9 -2.2,3.6 -15.6,6.3 -19.4,7 -6.1,1.4 -13.7,3.7 -20,2.7 l -12.1,-1.8 c -3,-0.4 -1.7,-6 -1.8,-8.6 -0.3,-7.5 0,-14.8 0.3,-22.3 m 53,25 a 51.2,51.2 0 0 1 -7.5,19.2 c -3.8,5.4 -8.2,10 -10.1,16.5 -4.4,14.6 -6.5,29.2 -14.5,42.5 -2.5,-11.7 -4.9,-23.3 -7.9,-34.8 -3,-12 -7.5,-22.7 -11.6,-34.2 19,0 33.8,-1.8 51.6,-9.1 M 449,277.6 c -5.3,4.9 -21.6,25 -28.8,15.4 -9.3,-12.4 23.1,-14.5 28.8,-15.4 m -25.8,2.8 c 4.5,-3.8 7,-9.2 8.8,-14.7 0.9,-2.6 2,-5.5 2.4,-8.2 0.5,-5 2.5,-5.4 3.2,-9.4 1.4,-8.4 -31.2,-10.2 -34.6,-6.7 -1,-3.6 0.9,-21.1 9,-17 7.7,3.7 2.2,-20.8 2.1,-22 5,-0.5 9.5,-0.6 14.6,-0.2 4,0.3 5,8 6.8,11.4 5.3,9.7 7.8,20.3 10.6,31 1,4 7.2,25.1 5,28.9 -3.6,5.9 -22,6.4 -28,7 m -8.3,-66.3 c -6.5,4 -32,8.5 -31,-3.6 0.2,-4.3 -0.8,-5.4 3.4,-5.7 l 15.8,-1.2 c 1.4,-0.1 8,-1.5 8.5,0 l 3.3,10.5 m -33.5,-1.4 c -1.4,-2.8 -3,-5.5 0.7,-7 l -0.7,7 m 0.7,-22.3 2.1,-16 c 0,6.1 2.3,26.1 -3.5,29.2 -0.3,-4.4 0.8,-8.8 1.4,-13.2 m -7.6,-50.9 c -1,-0.7 -1.6,-1.6 -2.8,-2 2.5,-0.2 2,1 2.8,2 m -5.6,-5.6 a 60.1,60.1 0 0 1 -4.2,-25.6 c 0,-5 0.6,-9.8 1,-14.6 0.5,-5.7 3.2,-5.9 8.8,-6.5 0.6,9.9 1.4,19.8 1.4,29.7 v 15.9 c 0,5.2 -4,2.3 -7,1.1 m -2.1,-47.4 c 2.8,-18.4 3,-42.6 16.8,-56.5 a 68.6,68.6 0 0 1 24.3,-14.6 c 8,-3 21.4,-11.5 30,-10.4 -3,3 -9.4,3.9 -13.5,5.5 a 72.3,72.3 0 0 0 -34.4,26.1 c -5.8,8.1 -9.2,17.3 -11.3,27 -1,4.2 -2.8,9.3 -2.8,13.7 0,8.5 -1,7.3 -9.1,9.2 m 172.9,150 c -0.3,-1.3 -1.5,-2.5 -2.1,-3.6 l -9.4,6.3 c -4.2,2.8 -3,4.2 -2.8,9.3 0.6,9.9 0.8,20 2.4,29.7 a 60.5,60.5 0 0 0 26.5,41.9 c 15.2,9.8 32,17.7 47.4,27.2 8.2,5 15.8,10 23.4,15.8 2,1.5 9,0.2 11.4,0.2 h 15.4 c -11.5,-8.9 -22,-18.5 -34.4,-26.3 -13,-8.3 -26.5,-15 -38.9,-24.2 -24.7,-18.5 -34.3,-47.2 -39,-76.4 m -3.4,-6.3 c -7.6,-9.7 -11.2,-1.6 -11.2,7.7 l 11.2,-7.7 m -14,5 -3.4,5.5 c 4,1 3.1,-2.7 3.5,-5.6 m -5,8.4 c -12.7,38.2 -10.5,86.7 -35.5,119.9 h 139.4 c -12.1,-8.4 -24.4,-16.8 -36.7,-25 -11.5,-7.7 -25.2,-11.8 -36.4,-19.6 -12.2,-8.5 -16.6,-24 -20.8,-37.3 -2,-6 -3.3,-12.6 -3.7,-19 -0.4,-5.5 2.3,-21.3 -6.2,-19 m -92,-78.8 c -1.5,-0.4 -1.9,-1.5 -3.5,-1.4 2,-3.6 8.6,0.3 3.5,1.4 m 3.4,-32.8 c 1.3,-5 7.2,-3.4 11.2,-3.4 -3,2.3 -7.6,2.6 -11.2,3.4 M 378,84.5 c 2.4,-22.2 6.7,-45.9 26.3,-59.6 a 258.7,258.7 0 0 1 33,-19.2 54.8,54.8 0 0 1 31.3,-3.4 c -21,13.5 -32.5,28.8 -35.2,54.1 L 431,78.7 c -0.2,1.8 -13.3,2.4 -15,2.4 -12.7,0.7 -25.6,0.7 -38,3.4"
       fill="#e8c6b0"
       id="path12" />
    <path
       d="m 389.7,255.3 v 2.8 -2.8 m 5.6,9.8 c 1.8,0.6 3.7,1.1 5.6,1.4 -2,0.2 -4,-0.2 -5.6,-1.4 m 10.4,4.9 a 21.5,21.5 0 0 0 -9,11.1 c -2.6,-1 -8.6,-4.4 -9.8,-7 -1.5,-3.3 1,-10.6 2.1,-13.9 4.4,7 8.6,8.2 16.7,9.8 m -9,13.2 c -1.3,4.2 -0.5,8.4 2,11.9 2.7,3.5 7.5,4.1 9.8,7 -11.9,0.5 -18.3,-13 -20.9,-22.4 3.1,-0.1 6.1,2.5 9,3.5 M 360.4,136.8 c 4.5,-0.6 8.6,1.8 12.6,3.5 -5.6,0.1 -11.2,-0.8 -16.8,-1.4 0.9,-1.7 2.2,-2 4.2,-2 m 16,5.5 c 1.7,1.1 4.7,7.7 3.5,9.8 -2.2,4 -5.3,1 -8.3,0 a 30,30 0 0 0 -10.1,-2.1 c -4,0 -4,-4.8 -4.6,-8.4 6.6,0 13,0.2 19.6,0.7 m 3.4,23.7 c -1,-1.2 -1.8,-2.8 -2.7,-4.2 2.1,0.4 3,2 2.7,4.2 m -4.8,-7.7 c -2,-2.3 -14,-4.3 -14,-4.5 0,-5 14.3,3.1 16,4.5 -1.1,1.1 -1.2,0.2 -2,0 m -23,-7 c 0.8,-1.3 2,-2.6 2.8,-4.1 0.4,1.3 2.7,5.6 1.7,6.6 -1.7,1.7 -4,-0.8 -4.5,-2.4 m 7,57.8 c 4.4,2.7 11.7,19.8 9.7,24.4 -4.4,-7.9 -7.6,-15.6 -9.8,-24.4 m 9.8,14 c 5.8,13 9.6,26.7 13.2,40.4 -5,-13.4 -9.3,-26.6 -13.2,-40.4"
       fill="#965938"
       id="path14" />
    <path
       d="m 469.2,31.6 c -7.2,3.9 -12.3,12.8 -16.4,19.6 -2,3 -3.9,7.6 -7.3,9.3 -4.4,2.2 -10.8,2.4 -10,-3.2 a 124,124 0 0 1 7,-28 c 2,-5 23.2,1.3 26.7,2.3 m -36.3,27.8 c -6,-1.9 -9.4,-10.2 -7.6,-16 2,-6.8 8.7,-11 14.6,-14 -3.9,9.7 -5.3,19.8 -7,30 m -41.8,115.8 1.3,17 c 0.4,5.4 2.3,11.4 -4.8,10.2 1.4,-9.2 1.3,-18.3 3.5,-27.2 m 0.7,29.2 c -0.5,3.9 -2.5,8 -7,7.7 1.5,-4.8 1.2,-8 7,-7.7 m 83.7,-35.5 c -3,2.5 -23,25.4 -26.5,18.1 -2,-3.8 6,-14.7 9,-16.7 6.4,-4.3 10.6,-1.3 17.5,-1.4"
       fill="#f3e1d4"
       id="path16" />
    <path
       d="m 524.3,145.9 c 1.5,-2.2 3.8,-7 7,-7 5.5,0 9.9,0.9 11.4,7 2.5,10 -0.5,3.3 -4.5,0.7 -3.2,-2 -10.7,-2.3 -14,-0.7"
       fill="#e8c6b0"
       id="path18" />
  </g>
  <g
     fill-rule="evenodd"
     id="g40"
     transform="translate(311.31551,0.01681847)">
    <path
       d="m 267,363.4 c -17.7,-13.8 -42,-22.8 -48.6,-46 -0.8,-2.8 0,-13 2.6,-14.7 2.6,-1.6 15.6,2.2 18.9,2.7 8.1,1.4 23.6,-4.8 27.4,-12.3 5.2,-10.5 8.6,-21.6 10.9,-33 2,-10 8.9,-20.7 13.2,-30 6,-12.5 9,-22.1 10.2,-36 1,-11.1 0,-22.6 2.7,-33.6 1.4,-5.4 2.4,-10.6 5.4,-15.4 2.7,-4.4 1.2,-11.8 1.2,-17 0,-10.6 -1.2,-21 -3,-31.5 -4,-24.2 -7.7,-45.8 -25.6,-63.6 -8,-8 -19,-12.5 -29.1,-16.9 C 243.6,11.9 232.7,5.7 222.4,3.9 a 197.2,197.2 0 0 0 -72.9,-1 c -21.9,4 -45.3,13.9 -56.3,34.2 a 120.5,120.5 0 0 0 -14.9,65.4 c 1.6,23.4 6.6,45.7 16.5,67 4.9,10.6 12.3,19.4 16.7,30 4.2,10.1 4.6,21.8 3,32.5 a 166,166 0 0 1 -19.7,61 l -0.7,-0.7 c -10,15.7 -26.2,26.7 -42.8,35 -19.2,9.6 -34.5,22.6 -51.3,36 h 267"
       fill="#131315"
       id="path22" />
    <path
       d="m 272.6,166.8 c -0.7,7.2 -4.1,33.2 2.8,37 0.7,-11.9 -2.1,-25.2 -2.8,-37 M 36.3,363.4 c 11.8,-7.1 24,-13.6 36.8,-18.6 6.8,-2.7 13.5,-5.2 20.4,-7.6 4.1,-1.4 18,-4 20.2,-7.8 16,-27.4 18.4,-54.8 20.1,-86 3.8,0.5 16.3,-0.2 18.6,2.7 4.5,5.6 8.8,11.5 13.9,16.6 a 238,238 0 0 0 29.8,25.8 c 7.6,5.5 8.6,5.2 6.7,14.6 -1.1,5.7 -4.3,14.1 -4,19 0.8,14.1 2.5,27.4 5.5,41.3 H 36.3 M 278.2,84.5 C 275.7,62.3 271.4,38.6 251.8,24.9 A 258.7,258.7 0 0 0 218.8,5.7 54.8,54.8 0 0 0 187.5,2.3 c 21,13.5 32.5,28.8 35.2,54.1 l 2.4,22.3 c 0.2,1.8 13.3,2.4 15,2.4 12.7,0.7 25.6,0.7 38,3.4 m 16,2.8 c -2.4,-18.7 -4.4,-42.1 -20,-55.5 -8,-6.8 -16.3,-12.4 -26,-16.7 -4.7,-2 -10,-3.4 -15,-5 -5.3,-1.8 -8.7,-5.8 -14.9,-5 3,3 9.4,3.9 13.5,5.5 5,2 9.3,3.9 13.8,6.7 a 76.1,76.1 0 0 1 21.7,21 c 5.8,8.1 8.6,17.9 10.7,27.5 1.3,5.7 2.3,11 2.3,16.8 0,4 10.3,4 14,4.7 m 9.7,5.6 C 302.1,67.2 295,47.8 276.8,29.5 c -1.3,2.6 5.8,11.6 7.4,14.8 a 94,94 0 0 1 6.5,15.5 138,138 0 0 1 4.5,18 c 1.2,7.3 0.7,12.8 8.7,15.1 M 109.4,95 c 17,-1.4 34.7,0 51.5,-3.2 4.4,-0.7 8.5,-1.8 12.8,-3 1.4,-0.3 -0.3,-9.2 -0.6,-11.3 -0.6,-5.3 -3.5,-20 2.6,-23 -0.6,6.2 -1,12.4 -0.6,18.6 0.3,3.7 0.4,6.9 1.6,10.4 1.6,4.7 1.6,3.7 6.6,2.4 12.9,-3.2 25.9,-5.4 39,-6.2 C 220.4,60.1 221.4,38.2 208.5,22 A 69.4,69.4 0 0 0 186.7,5.2 c -9,-5 -21.3,-2.8 -31.2,-1.2 a 49.5,49.5 0 0 0 -40.4,33.4 c -3.4,8.4 -5.2,18.4 -6.5,27.3 -0.6,3.9 -6,31.7 0.8,30.3 m -27.1,15.3 c 2.6,-5.5 20.8,-12.2 21,-15 0.6,-10.8 1,-21.7 2.7,-32.4 a 119,119 0 0 1 7.7,-28.2 c 3.4,-8 11.5,-15.5 13.9,-23.4 C 106.9,16 95,32.5 88.5,52 c -2.2,6.5 -14,57.5 -6.2,58.4 m 145,21.6 c -1.3,-5 -7.2,-3.4 -11.2,-3.4 3,2.3 7.6,2.6 11.2,3.4 m 55.7,4.2 c 4,-4 10.3,-2.5 15.4,-2 1.2,-15.1 5.3,-46.2 -16.8,-46.8 -0.4,6.9 -5.2,48 1.4,48.8 m 24.4,1.4 c -0.6,-11 2.4,-39.5 -9.7,-45.3 1.3,7.4 3.5,14.8 3.5,22.4 0,7.6 -1.2,18.6 6.2,23 m -62.7,1.3 c 3.2,-5 -5.8,-5.8 -9,-7 -1.6,5.8 5.1,5.9 9,7 m 41.1,1.4 14,-1.4 c -1.6,-2.8 -7.4,-2.5 -10.4,-2 -1.2,0.2 -7.2,0.4 -7.8,1.3 -1.6,2.6 2.9,2.5 4.2,2.1 m -69.7,11.2 c 4.3,-0.4 11.8,0.5 14,-4.2 -5.6,0.5 -10.2,1.3 -15.4,3.5 l 1.4,0.7 m -99,0.7 c 2,-1.2 3.8,-5.6 5.8,-5.6 3.3,0 5.4,0.7 7.8,3.1 3.8,3.8 8.6,-3.5 2.4,-7 -5,-3 -12,-6.5 -17.4,-1.7 -3.4,3 -6.1,13 1.4,11.2 m -25.8,2 c 0.7,-3.6 11.1,-2.2 15,-3 5.2,-1 2.7,-9.7 2.3,-14 a 196,196 0 0 0 -3,-20.1 c -0.7,-3.3 -0.6,-15.9 -2.4,-17.2 -4.3,-3.2 -12.4,4.5 -14.7,7 -4.1,4.6 -6,9 -6.8,15.2 -1.2,8 4.9,25.6 9.6,32.2 m 188.2,0 c 4.3,-1.9 8,-3.3 12.6,-4.2 1.5,-0.3 4.6,1 5,-0.8 0.8,-2.5 1.5,-5 2,-7.6 -5.7,0 -11.2,0 -16.8,0.8 -5,0.7 -4.3,1.2 -5.4,6 -0.7,3 -1.2,5.5 2.6,5.8 m 22.4,0 c 3.3,-2.3 3,-7.6 3.4,-11.2 -4.7,-0.5 -9,11.4 -3.4,11.2 m -108.1,0.7 c 7.2,-1.6 13.6,-4 20.6,-6.2 6.4,-2 17.7,-2.4 17.7,-10.6 0,-10.3 -35,-4.2 -41,-4.2 3.8,-5 10.6,-6.2 16.5,-7 3.8,-0.6 17,-0.3 16.7,-4.3 -0.4,-7.2 -1,-14.5 -1.3,-21.7 l -0.5,-13.8 c -0.2,-5.2 -0.8,-4 -6,-4 -8.7,0 -33,-0.2 -38.7,8.3 -2.6,4 -2.3,16 -3.5,21 -1.8,7 -4.2,13.9 -6.3,20.8 -0.8,-13.3 5,-27.3 7,-40.4 -16.6,2 -33.2,2.8 -49.9,4.2 L 112,98 c -5.6,0.5 -5.2,1.8 -5.2,7.3 0,8.3 0.5,17 2.3,25 0.7,3.4 1.3,6.4 3.4,9.2 0.3,0.4 9.1,-2.8 11.3,-2.8 a 17,17 0 0 1 10.1,3.7 c 2.7,2 4.3,7.4 7.8,7.6 17.8,0.8 34.8,3.2 52.2,6.9 M 228,159 c 0,-6.6 0.5,-6.2 -6.2,-6.2 a 29,29 0 0 0 -11.3,2 131,131 0 0 0 17.5,4.2 m 52.2,0 c 4.6,-2.7 14.8,-0.9 14.7,-6.2 -6.7,-0.5 -11,1.4 -16,5.5 l 1.3,0.7 m -39,1.4 c -1,-5.4 -6,-5.7 -9,-2 a 30,30 0 0 0 9,2 m 30,0 c 3.8,-21.1 7.6,-42 7.6,-63.6 0,-3.4 2,-10 -2,-10.5 l -21.1,-2.2 c -10.1,-1 -20.4,-1.7 -30.5,-2.4 l 0.5,25.5 c 0,5 -1,14.4 3,18.4 5.1,5.1 14.2,2.7 18.8,7.6 2.5,2.8 3,6.6 -2.1,8.4 -2.2,0.8 -8,-1.6 -10.5,-2 -2,8.2 13.5,9.7 10.5,16.6 -3,-2.7 -5.2,-7.3 -9.8,-7.6 -7.3,-0.6 0.3,5.8 3.5,7.6 9.5,5.3 21.8,2.4 32,4.2 m 28.7,1.4 c 3.4,-6.6 -8.8,-5 0,0 m -69,2.8 c 1.4,-0.4 1.8,-1.5 3.4,-1.4 -2,-3.6 -8.6,0.3 -3.5,1.4 m -9.7,2.1 c 3.6,-1 6.9,-0.8 6.3,-5.6 -7.2,-1.1 -14,-2.3 -21,-4.2 2,5.2 9.6,9.3 14.7,9.8 m 73.2,0.7 c 4.8,-1.2 3.8,-6.5 -0.7,-7 -0.3,2.5 -2,7.7 0.7,7 m -5.6,1.4 c 1.7,-2.8 2.6,-5.9 1.8,-9 -0.7,-2.7 -7.3,0 -9.6,1 -1.5,0.6 -3.9,1 -4.2,2.6 -0.8,4 0.6,1.4 1.9,4 0.6,1.3 8.3,1 10.1,1.4 m -2,6.3 c 4,-4 -3.6,-6.3 -7,-6.3 a 14,14 0 0 0 7,6.3 m -167.4,2 c -1.5,-6.7 -4.3,-12.1 -7.4,-18.3 -2.9,-5.7 -10.7,-7.5 -17,-4.3 -4.4,2.2 -3.3,3.5 -1,8 1.7,3.5 3.8,6.3 6.6,9 5,5 12.2,5 18.8,5.7 m 89.2,23.7 13.6,-2 c 1.1,-0.2 0.8,-11 0.9,-12.5 0.2,-3.8 0,-7.5 -0.2,-11.3 -0.4,-7.8 -0.4,-6 -6.7,-9.5 -7.4,-4.3 -14,-8.7 -21.8,-8.7 -7.8,0 -17.8,-3.7 -25.8,-4.8 -8.3,-1.1 -16.7,-1.4 -25,-1.4 -2,0 -9.6,2.2 -9.5,3.5 0.2,1.6 2,13.2 -0.8,13.9 -1.4,0.4 -1.6,-15.6 -6.2,-16.7 -10,-2.5 -0.9,14.7 -1.4,19.5 -1.5,-3.2 -3.1,-6.3 -4.4,-9.6 -2.4,-5.9 -1.8,-6.4 -8.2,-6.4 0.6,2.7 7.6,19.7 9.7,19.4 7.2,-1.2 14.7,0.9 21.7,4.3 v -1.4 c 21,12.4 39.5,21.8 64.1,23.7 m 60.7,2 c 4.4,-0.9 1,-15.7 0.8,-19.7 -0.5,-6.8 -0.1,-13.6 -0.1,-20.4 0,-5.5 -33.2,1.7 -36.3,2.5 -2,0.5 -8.2,1.6 -8.4,3.5 -0.4,3.5 -0.6,6.6 -0.3,10.1 0.2,2.4 0.8,19.1 1.5,19.3 14.2,2.6 28.5,3.4 42.8,4.8 m 8.4,12.5 c -0.6,-3.1 0,-8.5 -3.5,-9.8 0.2,3.5 -1.1,9.7 3.5,9.8 M 297.7,203 c 2.1,-12 1.6,-24.2 2,-36.3 -1.4,1 -8.5,3.6 -9,4.9 -1.5,3.8 6.7,5 0,6.3 a 62.4,62.4 0 0 1 2.8,26.4 c 1.3,-0.4 3,-0.6 4.2,-1.3 m -10.5,30.6 c 5,-9.1 8.4,-18.3 10.5,-28.6 -6.5,0 -5.1,7.1 -6.4,12.4 -1,3.6 -5.4,13 -4,16.2 M 131,238 l 0.5,-24.4 c 0,-2 0.9,-5.7 0.2,-7.7 -0.8,-2 -4.7,-5 -6,-7.6 -1.3,-2.6 -2.9,-17.7 -5,-18.3 -6.6,-1.8 -14,-4.6 -21.1,-4 7.6,11.2 14.2,20.3 17,33.8 1.2,6.1 0.6,13 1,19.3 0.2,1.1 12,7.8 13.4,9 m 17.4,4.8 c -0.1,-3.6 -2.4,-5.8 -4.5,-8.5 -1.6,-2.1 -0.9,-6.8 -1.1,-9.5 -0.6,-6.5 -0.7,-15.7 -8.4,-17.6 v 24.2 c 0,1.6 -1,9.1 0.8,9.4 4.4,1 8.7,1.5 13.2,2 m 53,28.6 c 2.5,-11.7 4.9,-23.3 7.9,-34.8 3,-12 7.5,-22.7 11.6,-34.2 a 121.5,121.5 0 0 1 -51,-8.4 c -7.8,-2.8 -15.2,-7.5 -22.5,-11.3 -8.6,-4.7 -14.4,-4.6 -24.1,-5.4 1.4,9.3 2.7,25.1 14.3,26.8 7,1 7.4,23.8 10.4,30.4 a 77.5,77.5 0 0 0 9,15.4 c 3.6,4.7 7.5,4 12.3,6.1 10.2,4.6 20.7,14 32,15.4 m 44.7,10.4 c 2.3,-2.3 1.4,-6 1.4,-9 0,-4.6 -5.7,-4.3 -9.7,-5.4 -7,-2 -11.7,-12 -18,-15.7 -9,-5.4 12.3,-10.7 15.1,-11 9,-0.9 14.6,-1 22.3,2.8 0.1,-3.8 -0.2,-7.5 -0.4,-11.2 -0.3,-6 -0.7,-5.8 -5.8,-9 3,-1 6,1.6 9.7,0.7 3.9,-1 7.4,-4 10.1,-6.7 3,-3 1.4,-7.6 1.1,-11.7 0,-1.2 -11.2,-1.3 -12.5,-1.4 l -14.5,-1.1 c -0.3,0 -3.8,10.5 -3.7,11.8 1,10 18.2,-1.6 18.1,6.3 -5.8,0 -15.2,5.3 -18.8,0.7 -3.8,-5 -0.1,-14.4 1.4,-19.5 a 93,93 0 0 0 -16.1,-0.1 c -1.3,0.1 -6.4,13.3 -7.3,15 -4.9,9 -7.4,20.8 -9.3,30.7 -1.1,6.2 -2.3,12.3 -3.2,18.5 -1.2,8.2 0.2,8 7.8,10.8 10,3.7 21.8,3.8 32.3,4.5 m 44.6,-77.4 c 0,-7 0.8,-14.9 -1.4,-21.7 -1.4,-4.2 -9.9,-13.6 -14.6,-13.1 0.5,6.8 1,13.6 1.9,20.4 0.3,2.4 -0.1,10.6 1.6,12.4 1.8,2 10,1.8 12.5,2 m -32.8,77.4 c 3.8,-2.2 11.5,-5.3 13,-9.7 l 9.7,-26.3 c 4.8,-13 7.8,-26.2 10.1,-40 -3.8,0 -9.8,1.1 -12.5,-2 0.3,2.8 3.5,15.1 1.3,16.4 -4,2.3 -9.8,6.1 -14.5,6.6 -2.9,0.3 -5.6,-0.6 -5.8,2.5 -0.1,2.9 -1.3,7.2 -0.6,10 2.1,8.3 7.6,-0.5 10.5,3.8 1.6,2.4 1.6,5.1 2,7.9 0.2,1.5 -2.7,2 -3,4.2 -1,5.2 -1.8,9.2 -6.7,12 -3.3,1.9 -12,1 -11.6,4.7 1.2,7.8 0,10 8.1,10 m -55.7,6.9 c 0,-4.2 0,-7.8 -1,-11.9 -1,-3.4 -8.2,-5.8 -11.2,-7.4 -5.8,-3.3 -14.5,-9 -21.3,-8.6 9.5,9.5 20.4,23.4 33.5,27.9 m 47.4,13.2 c 11,-5.4 15.5,-10.3 18.8,-22.3 -6,0.5 -10.8,5 -17.2,5 -1.4,0 -3.1,14.6 -3.7,17.3 h 2 m -7.6,0.7 c 3.2,-4.5 5.1,-7 5.6,-12.5 0.7,-8.1 -3.8,-5.7 -10.5,-7 -10.9,-2.1 -20.9,-4.8 -32,-5.6 0,4.3 0.2,8.3 0.6,12.6 0.2,2.3 6.9,4.9 9,5.8 a 75,75 0 0 0 27.3,6.7 M 29.3,363.4 c 11.6,-9.3 23.2,-19.6 36,-27.4 6,-3.8 12,-7.9 18.2,-11.2 6.7,-3.7 15.9,-6 20.5,-12.3 8.7,-11.5 12.8,-29 17.7,-42.5 2.7,-7.5 5.2,-15 7.5,-22.6 1.9,-6 2.2,-4.4 -1.6,-8.1 -3,-3 -7,-4.9 -10.5,-7 -5.8,34.6 -15.9,62.6 -41.1,87.9 0.4,-3.4 2.8,-6 4.9,-8.4 l -0.7,-0.7 a 323,323 0 0 1 -39,24.4 c -13.7,7.4 -25,18 -37,27.9 h 25 m 234.3,0 c -8,-5 -16.1,-10 -23.3,-16.3 -6.7,-5.9 -14.3,-15.8 -22,-20 0.5,4.6 4.1,18.9 0,22.3 -6.4,-10 -1.8,-32.3 -1,-43.5 0.2,-4.3 0.8,-5.7 -3.2,-7.7 -4.3,-2.1 -6.7,-1.7 -8.3,2.4 -2.9,7.1 -4.2,14.1 -4.2,21.7 0,6 0.1,41 7.3,41 h 54.7"
       fill="#c6946b"
       id="path24" />
    <path
       d="m 251.7,252.5 c 10.6,-5.6 -0.6,-9.9 -7.7,-10.4 -5.2,-0.4 -21,1.4 -22.3,7 10,1.8 20,1.6 30,3.4 m 6.9,1.5 a 20,20 0 0 0 8.4,-2.5 c 1.4,-0.7 1,-6 -0.7,-6 -4.4,0 -6.3,0 -8.4,4.3 -1,2.3 -3.4,4.2 0.7,4.1"
       fill="#965938"
       id="path26" />
    <path
       d="m 248.2,266.5 c 8.7,-0.7 4.8,-9.2 -0.6,-11.6 -5.8,-2.6 -13.8,-2.2 -20,-2.9 -6,-0.6 0,6.7 2.4,7.8 a 88,88 0 0 0 18.2,6.7"
       fill="#e8c6b0"
       id="path28" />
    <path
       d="m 258,266.5 c 4,-2 9.3,-6.2 8.3,-11.2 -1.3,0.4 -10.7,1 -11.2,1.4 -1.1,1.2 0.2,7.6 -0.7,9.8 1.1,0 2.5,0.3 3.5,0"
       fill="#c6946b"
       id="path30" />
    <path
       d="m 123.4,12 c -5.4,2.8 -13.2,5.6 -16.7,10.8 -4.6,6.8 1.4,8.8 7,11.6 1.8,-3.8 3.4,-8.3 5.9,-11.7 2.5,-3.5 6.8,-7.2 8,-11.4 -1.4,0.3 -3,0.2 -4.2,0.7 m -7.7,22.4 c 16.6,3 36.4,1 51.7,7.9 17,7.6 13.7,28 16.6,43.6 8.6,-1.8 17,-3.9 25.8,-4.8 1.3,-0.2 12.6,-1 12.5,-1.8 -0.4,-4.7 -1,-9.4 -1.3,-14 -1,-17 -3.3,-37.2 -17.4,-49 C 199,12.6 188.3,3.3 182.3,3 173,2.5 164.3,2.2 155.3,4 135.9,7.9 125.1,17.2 115.7,34.4 m 69,53.6 c 1.5,6.4 2.7,13 2,19.6 -0.8,8.5 -2.9,15.8 0.5,24.1 2.7,7 12.3,6.5 18.3,6.4 8.2,-0.2 18.7,1.4 26.6,-1.3 -10.8,-8.8 -28.3,-2.8 -41,-2.8 5.4,-7.2 17.5,-7.4 25.7,-8.3 5.3,-0.6 7.8,1.1 7.4,-4.5 l -1.1,-17.8 -0.6,-16.2 c -0.2,-5.7 -2.7,-4.4 -8.2,-4 -10.3,0.7 -19.7,2 -29.6,4.8 m 53,49.5 c 2.7,0.8 7.7,3.1 7.7,-1 0,-2.4 -7.6,-3.8 -9.8,-4.6 -0.6,2.3 0.2,4.4 2.1,5.6 m 6.3,4.2 c 1.4,2.8 6.6,11.7 3.5,14.6 -3,2.9 -12.1,-6.3 -15.4,-7 7.1,12.7 25.3,10.3 37.7,11.2 -0.9,-9.4 4.6,-20.5 6,-29.9 1.5,-10 3,-19.8 3,-30 0,-2.2 1.3,-13.8 -0.9,-14 l -22.2,-2.4 c -10.1,-1 -20.4,-1.7 -30.5,-2.4 l 0.4,21.3 c 0.1,6 -1.1,14.1 1.7,19.8 2.6,5.3 8,6.9 13.6,7.8 6.7,1.2 13.5,9.8 3,11 m -14.5,6.3 c -4.1,-0.5 -8.7,1 -11.9,3.5 3.5,-0.4 10.3,0.4 11.9,-3.5 m -16.8,5.6 c -0.7,0.8 -1.3,1 -1.4,2 l 5.6,-2.7 c -1.4,0.2 -2.8,0.3 -4.2,0.7 m 23,2 c 1.7,2.3 2.5,5.2 5.6,5 -0.5,-2.9 -2.9,-4.4 -5.6,-5 m -16.7,4.2 c -1.4,3 3.2,4.4 6,5.3 1.9,0.6 3.5,-2.2 2.4,-3.9 -0.8,-1 -7,-1.1 -8.4,-1.4 m 9,7.7 c -5.3,1.5 -3.2,10.4 -2.8,14.8 0.5,5.6 -1.5,15.4 4.3,16.5 6.4,1.2 12.6,1.6 19.1,2.3 3.9,0.3 20,4.5 22.7,1.3 1.7,-2 -2.8,-40 -2.5,-40 a 71,71 0 0 0 -40.7,5.1 m -5.6,0.7 c -12.2,-3 -23.6,-13.3 -37,-10.5 a 20,20 0 0 0 -14,12.6 c -1.3,3.8 -4.3,17.2 -2,20.9 2.2,3.6 15.6,6.3 19.4,7 6.1,1.4 13.7,3.7 20,2.7 l 12.1,-1.8 c 3,-0.4 1.7,-6 1.8,-8.6 0.3,-7.5 0,-14.8 -0.3,-22.3 m -53,25 a 51.2,51.2 0 0 0 7.5,19.2 c 3.8,5.4 8.2,10 10.1,16.5 4.4,14.6 6.5,29.2 14.5,42.5 2.5,-11.7 4.9,-23.3 7.9,-34.8 3,-12 7.5,-22.7 11.6,-34.2 -19,0 -33.8,-1.8 -51.6,-9.1 m 37.6,84.3 c 5.3,4.9 21.6,25 28.8,15.4 9.3,-12.4 -23.1,-14.5 -28.8,-15.4 m 25.8,2.8 c -4.5,-3.8 -7,-9.2 -8.8,-14.7 -0.9,-2.6 -2,-5.5 -2.4,-8.2 -0.5,-5 -2.5,-5.4 -3.2,-9.4 -1.4,-8.4 31.2,-10.2 34.7,-6.7 0.9,-3.6 -1,-21.1 -9.1,-17 -7.7,3.7 -2.2,-20.8 -2.1,-22 -5,-0.5 -9.5,-0.6 -14.6,-0.2 -4,0.3 -5,8 -6.8,11.4 -5.3,9.7 -7.8,20.3 -10.6,31 -1,4 -7.2,25.1 -5,28.9 3.6,5.9 22,6.4 28,7 m 8.3,-66.3 c 6.5,4 32,8.5 31.1,-3.6 -0.3,-4.3 0.7,-5.4 -3.5,-5.7 L 253,203.7 c -1.4,-0.1 -8,-1.5 -8.5,0 l -3.3,10.5 m 33.5,-1.4 c 1.4,-2.8 3,-5.5 -0.7,-7 l 0.7,7 m -0.7,-22.3 -2.1,-16 c 0,6.1 -2.3,26.1 3.5,29.2 0.3,-4.4 -0.8,-8.8 -1.4,-13.2 m 7.6,-50.9 c 1,-0.7 1.6,-1.6 2.8,-2 -2.5,-0.2 -2,1 -2.8,2 m 5.6,-5.6 a 60.1,60.1 0 0 0 4.2,-25.6 c 0,-5 -0.6,-9.8 -1,-14.6 -0.5,-5.7 -3.1,-5.9 -8.8,-6.5 -0.5,9.9 -1.4,19.8 -1.4,29.7 v 15.9 c 0,5.2 4,2.3 7,1.1 m 2.1,-47.4 C 286.5,68.2 286.3,44 272.5,30.1 A 68.6,68.6 0 0 0 248.2,15.5 c -8,-3 -21.4,-11.5 -30,-10.4 3,3 9.4,3.9 13.5,5.5 a 72.3,72.3 0 0 1 34.4,26.1 c 5.8,8.1 9.2,17.3 11.4,27 1,4.2 2.7,9.3 2.7,13.7 0,8.5 1,7.3 9.1,9.2 m -172.9,150 c 0.3,-1.3 1.5,-2.5 2.1,-3.6 l 9.4,6.3 c 4.2,2.8 3,4.2 2.8,9.3 -0.6,9.9 -0.8,20 -2.4,29.7 a 60.5,60.5 0 0 1 -26.5,41.9 c -15.2,9.8 -32,17.7 -47.4,27.2 A 293,293 0 0 0 31,363.2 c -2,1.5 -9,0.2 -11.4,0.2 H 4.2 c 11.5,-8.9 22,-18.5 34.4,-26.3 13,-8.3 26.6,-15 38.9,-24.2 24.7,-18.5 34.3,-47.2 39,-76.4 m 3.4,-6.3 c 7.6,-9.7 11.2,-1.6 11.2,7.7 l -11.2,-7.7 m 14,5 3.4,5.5 c -3.9,1 -3,-2.7 -3.5,-5.6 m 5,8.4 c 12.7,38.2 10.6,86.7 35.5,119.9 H 34.9 c 12.1,-8.4 24.4,-16.8 36.7,-25 11.5,-7.7 25.3,-11.8 36.5,-19.6 12.1,-8.5 16.5,-24 20.8,-37.3 1.9,-6 3.2,-12.6 3.6,-19 0.4,-5.5 -2.3,-21.3 6.2,-19 m 92,-78.8 c 1.5,-0.4 1.9,-1.5 3.5,-1.4 -2,-3.6 -8.6,0.3 -3.5,1.4 m -3.4,-32.8 c -1.3,-5 -7.2,-3.4 -11.2,-3.4 3,2.3 7.6,2.6 11.2,3.4 M 278.2,84.5 C 275.7,62.3 271.4,38.6 251.8,24.9 A 258.7,258.7 0 0 0 218.8,5.7 54.8,54.8 0 0 0 187.5,2.3 c 21,13.5 32.5,28.8 35.2,54.1 l 2.4,22.3 c 0.2,1.8 13.3,2.4 15,2.4 12.7,0.7 25.6,0.7 38,3.4"
       fill="#e8c6b0"
       id="path32" />
    <path
       d="m 266.3,255.3 v 2.8 -2.8 m -5.6,9.8 c -1.8,0.6 -3.7,1.1 -5.6,1.4 2,0.2 4,-0.2 5.6,-1.4 m -10.4,4.9 c 4.5,3.3 7.1,5.8 9,11.1 2.6,-1 8.6,-4.4 9.8,-7 1.5,-3.3 -1,-10.6 -2.1,-13.9 -4.4,7 -8.6,8.2 -16.7,9.8 m 9,13.2 c 1.3,4.2 0.5,8.4 -2,11.9 -2.7,3.5 -7.5,4.1 -9.8,7 12,0.5 18.4,-13 20.9,-22.4 -3.1,-0.1 -6.1,2.5 -9,3.5 m 36.2,-146.4 c -4.5,-0.6 -8.6,1.8 -12.6,3.5 5.6,0.1 11.2,-0.8 16.8,-1.4 -0.9,-1.7 -2.2,-2 -4.2,-2 m -16,5.5 c -1.7,1.1 -4.7,7.7 -3.5,9.8 2.2,4 5.3,1 8.3,0 a 30,30 0 0 1 10.1,-2.1 c 4,0 4,-4.8 4.6,-8.4 -6.6,0 -13,0.2 -19.6,0.7 m -3.4,23.7 c 1,-1.2 1.8,-2.8 2.7,-4.2 -2,0.4 -3,2 -2.7,4.2 m 4.8,-7.7 c 2,-2.3 14,-4.3 14,-4.5 0,-5 -14.3,3.1 -16,4.5 1.1,1.1 1.2,0.2 2,0 m 23,-7 c -0.8,-1.3 -2,-2.6 -2.7,-4.1 -0.5,1.3 -2.7,5.6 -1.8,6.6 1.7,1.7 4,-0.8 4.5,-2.4 m -7,57.8 c -4.4,2.7 -11.7,19.8 -9.7,24.4 4.4,-7.9 7.6,-15.6 9.8,-24.4 m -9.8,14 c -5.8,13 -9.6,26.7 -13.2,40.4 5,-13.4 9.3,-26.6 13.2,-40.4"
       fill="#965938"
       id="path34" />
    <path
       d="m 186.8,31.6 c 7.2,3.9 12.3,12.8 16.4,19.6 2,3 3.9,7.6 7.4,9.3 4.3,2.2 10.7,2.4 9.8,-3.2 a 124,124 0 0 0 -6.9,-28 c -2,-5 -23.1,1.3 -26.7,2.3 m 36.3,27.8 c 6.1,-1.9 9.4,-10.2 7.6,-16 -2,-6.8 -8.7,-11 -14.6,-14 3.9,9.7 5.3,19.8 7,30 m 41.8,115.8 -1.2,17 c -0.5,5.4 -2.4,11.4 4.7,10.2 -1.4,-9.2 -1.2,-18.3 -3.5,-27.2 m -0.7,29.2 c 0.5,3.9 2.5,8 7,7.7 -1.4,-4.8 -1.2,-8 -7,-7.7 M 180.6,169 c 3,2.5 22.8,25.4 26.4,18.1 2,-3.8 -6,-14.7 -9,-16.7 -6.4,-4.3 -10.6,-1.3 -17.4,-1.4"
       fill="#f3e1d4"
       id="path36" />
    <path
       d="m 131.8,145.9 c -1.6,-2.2 -4,-7 -7,-7 -5.6,0 -10,0.9 -11.5,7 -2.5,10 0.5,3.3 4.5,0.7 3.2,-2 10.7,-2.3 14,-0.7"
       fill="#e8c6b0"
       id="path38" />
  </g>
</svg>
