<?xml version="1.0" encoding="UTF-8" standalone="no"?>
<svg
   xmlns="http://www.w3.org/2000/svg"
   width="22"
   height="22"
   version="1.1"
   id="svg4">
  <metadata
     id="metadata10">
  </metadata>
  <defs
     id="defs8" />
  <path
     fill="#0192ea"
     d="m 11.989388,2 c 3.9,0 7,3.1 7,7 0,2.8 -1.6,5.2 -4,6.3 V 20 H 7.9893879 v -3 h -1 c -1.1,0 -2,-0.9 -2,-2 v -3 h -1.5 c -0.4,0 -0.7,-0.5 -0.4,-0.8 l 1.9,-2.5 c 0.2,-3.8 3.2,-6.7 7.0000001,-6.7 m 0,-2 C 7.3893879,0 3.5893879,3.4 3.0893879,7.9 l -1.6,2.1 c -0.60000002,0.8 -0.60000002,1.8 -0.2,2.6 0.4,0.7 1,1.2 1.7,1.3 V 15 c 0,1.9 1.3,3.4 3,3.9 V 22 H 16.989388 v -5.5 c 2.5,-1.7 4,-4.4 4,-7.5 0,-5 -4,-9 -9,-9 m 2,8 -3.1,6 0.6,-4 H 9.3893879 L 11.489388,5 h 2.5 l -1.5,3 z"
     id="path2" />
</svg>
