<svg xmlns="http://www.w3.org/2000/svg" width="19.978775" height="22">
  <path fill="#0192ea" d="M10.978775 2c3.9 0 7 3.1 7 7 0 2.8-1.6 5.2-4 6.3V20H6.9787754v-3h-1c-1.1 0-2-.9-2-2v-3h-1.5c-.4 0-.7-.5-.4-.8l1.9-2.5c.2-3.8 3.2-6.7 6.9999996-6.7m0-2C6.3787754 0 2.5787754 3.4 2.0787754 7.9L.47877538 10c-.6.8-.6 1.8-.2 2.6.4.7 1.00000002 1.2 1.70000002 1.3V15c0 1.9 1.3 3.4 3 3.9V22H15.978775v-5.5c2.5-1.7 4-4.4 4-7.5 0-5-4-9-9-9m2 8l-3.0999996 6 .5999996-4H8.3787754l2.0999996-5h2.5l-1.5 3z"/>
</svg>
