<?xml version="1.0" encoding="UTF-8" standalone="no"?>
<svg
   xmlns:dc="http://purl.org/dc/elements/1.1/"
   xmlns:cc="http://creativecommons.org/ns#"
   xmlns:rdf="http://www.w3.org/1999/02/22-rdf-syntax-ns#"
   xmlns:svg="http://www.w3.org/2000/svg"
   xmlns="http://www.w3.org/2000/svg"
   xmlns:sodipodi="http://sodipodi.sourceforge.net/DTD/sodipodi-0.dtd"
   xmlns:inkscape="http://www.inkscape.org/namespaces/inkscape"
   viewBox="0 0 19.978775 22"
   id="vector"
   version="1.1"
   sodipodi:docname="vector.svg"
   width="19.978775"
   height="22"
   inkscape:version="1.0.2 (e86c870879, 2021-01-15)">
  <metadata
     id="metadata8">
    <rdf:RDF>
      <cc:Work
         rdf:about="">
        <dc:format>image/svg+xml</dc:format>
        <dc:type
           rdf:resource="http://purl.org/dc/dcmitype/StillImage" />
      </cc:Work>
    </rdf:RDF>
  </metadata>
  <defs
     id="defs6" />
  <sodipodi:namedview
     pagecolor="#ffffff"
     bordercolor="#666666"
     borderopacity="1"
     objecttolerance="10"
     gridtolerance="10"
     guidetolerance="10"
     inkscape:pageopacity="0"
     inkscape:pageshadow="2"
     inkscape:window-width="1920"
     inkscape:window-height="999"
     id="namedview4"
     showgrid="false"
     inkscape:zoom="17.479167"
     inkscape:cx="2.9254371"
     inkscape:cy="9.3815487"
     inkscape:window-x="1920"
     inkscape:window-y="0"
     inkscape:window-maximized="1"
     inkscape:current-layer="vector" />
  <path
     id="path"
     d="m 10.978775,2 c 3.9,0 7,3.1 7,7 0,2.8 -1.6,5.2 -4,6.3 V 20 H 6.9787754 v -3 h -1 c -1.1,0 -2,-0.9 -2,-2 v -3 h -1.5 c -0.4,0 -0.7,-0.5 -0.4,-0.8 l 1.9,-2.5 c 0.2,-3.8 3.2,-6.7 6.9999996,-6.7 m 0,-2 C 6.3787754,0 2.5787754,3.4 2.0787754,7.9 L 0.47877538,10 c -0.6,0.8 -0.6,1.8 -0.2,2.6 0.4,0.7 1.00000002,1.2 1.70000002,1.3 V 15 c 0,1.9 1.3,3.4 3,3.9 V 22 H 15.978775 v -5.5 c 2.5,-1.7 4,-4.4 4,-7.5 0,-5 -4,-9 -9,-9 m 2,8 -3.0999996,6 0.5999996,-4 H 8.3787754 L 10.478775,5 h 2.5 l -1.5,3 z"
     fill="none"
     style="fill:#0192ea;fill-opacity:1" />
</svg>
