<?xml version="1.0" encoding="UTF-8" standalone="no"?>
<svg
   xmlns="http://www.w3.org/2000/svg"
   width="25"
   height="25"
   version="1.1"
   id="svg4">
  <metadata
     id="metadata10">
  </metadata>
  <defs
     id="defs8" />
  <rect
     style="fill:#0192ea;stroke-width:1.34803;fill-opacity:1"
     id="rect830"
     height="25"
     x="0"
     y="0"
     width="25" />
  <path
     fill="#0192ea"
     d="m 13.489388,3.5 c 3.9,0 7,3.1 7,7 0,2.8 -1.6,5.2 -4,6.3 v 4.7 H 9.4893875 v -3 h -1 c -1.1,0 -2,-0.9 -2,-2 v -3 h -1.5 c -0.4,0 -0.7,-0.5 -0.4,-0.8 l 1.9,-2.5 c 0.2,-3.8 3.2,-6.7 7.0000005,-6.7 m 0,-2 C 8.8893875,1.5 5.0893875,4.9 4.5893875,9.4 l -1.6,2.1 c -0.6,0.8 -0.6,1.8 -0.2,2.6 0.4,0.7 1,1.2 1.7,1.3 v 1.1 c 0,1.9 1.3,3.4 3,3.9 v 3.1 H 18.489388 V 18 c 2.5,-1.7 4,-4.4 4,-7.5 0,-5 -4,-9 -9,-9 m 2,8 -3.1,6 0.6,-4 h -2.1 l 2.1,-5 h 2.5 l -1.5,3 z"
     id="path2"
     style="fill:#ffffff" />
</svg>
